{
    "asset" : {
        "generator" : "Khronos glTF Blender I/O v1.1.46",
        "version" : "2.0"
    },
    "scene" : 0,
    "scenes" : [
        {
            "name" : "Scene",
            "nodes" : [
                6
            ]
        }
    ],
    "nodes" : [
        {
            "name" : "Bone.004",
            "rotation" : [
                0.7071068286895752,
                0,
                0,
                0.7071068286895752
            ],
            "translation" : [
                0,
                0.6,
                0
            ]
        },
        {
            "children" : [
                0
            ],
            "name" : "Bone.003",
            "translation" : [
                0,
                0.6,
                0
            ]
        },
        {
            "children" : [
                1
            ],
            "name" : "Bone.002",
            "rotation" : [
                -0.7071068286895752,
                0,
                0,
                0.7071068286895752
            ],
            "translation" : [
                0,
                0.6,
                0
            ]
        },
        {
            "children" : [
                2
            ],
            "name" : "Bone.001"
        },
        {
            "mesh" : 0,
            "name" : "Cylinder",
            "skin" : 0
        },
        {
            "mesh" : 1,
            "name" : "Cylinder.001",
            "skin" : 0
        },
        {
            "children" : [
                4,
                5,
                3
            ],
            "extras" : {
                "animate" : {
                    "Bone.003" : {
                        "axis" : ["y"]
                    }
                },
                "male_port_limb" : "Bone.001",
                "female_port_limb" : "Bone.004"
            },
            "name" : "Armature",
            "translation" : [
                0,
                -0.6000000238418579,
                0.6000000238418579
            ]
        }
    ],
    "materials" : [
        {
            "doubleSided" : true,
            "emissiveFactor" : [
                0,
                0,
                0
            ],
            "name" : "Material.005",
            "pbrMetallicRoughness" : {
                "baseColorFactor" : [
                    0.01599504053592682,
                    0.01599504053592682,
                    0.01599504053592682,
                    1
                ],
                "metallicFactor" : 0.6749999523162842,
                "roughnessFactor" : 0.5
            }
        }
    ],
    "meshes" : [
        {
            "name" : "Cylinder",
            "primitives" : [
                {
                    "attributes" : {
                        "POSITION" : 0,
                        "NORMAL" : 1,
                        "TEXCOORD_0" : 2,
                        "JOINTS_0" : 3,
                        "WEIGHTS_0" : 4
                    },
                    "indices" : 5,
                    "material" : 0
                }
            ]
        },
        {
            "name" : "Cylinder.001",
            "primitives" : [
                {
                    "attributes" : {
                        "POSITION" : 7,
                        "NORMAL" : 8,
                        "TEXCOORD_0" : 9,
                        "JOINTS_0" : 10,
                        "WEIGHTS_0" : 11
                    },
                    "indices" : 12,
                    "material" : 0
                }
            ]
        }
    ],
    "skins" : [
        {
            "inverseBindMatrices" : 6,
            "joints" : [
                3,
                2,
                1,
                0
            ],
            "name" : "Armature"
        }
    ],
    "accessors" : [
        {
            "bufferView" : 0,
            "componentType" : 5126,
            "count" : 160,
            "max" : [
                0.6000000238418579,
                0.6000000238418579,
                1.100000023841858
            ],
            "min" : [
                -0.6000000238418579,
                -0.6000000834465027,
                -2.622683403785686e-08
            ],
            "type" : "VEC3"
        },
        {
            "bufferView" : 1,
            "componentType" : 5126,
            "count" : 160,
            "type" : "VEC3"
        },
        {
            "bufferView" : 2,
            "componentType" : 5126,
            "count" : 160,
            "type" : "VEC2"
        },
        {
            "bufferView" : 3,
            "componentType" : 5123,
            "count" : 160,
            "type" : "VEC4"
        },
        {
            "bufferView" : 4,
            "componentType" : 5126,
            "count" : 160,
            "type" : "VEC4"
        },
        {
            "bufferView" : 5,
            "componentType" : 5123,
            "count" : 282,
            "type" : "SCALAR"
        },
        {
            "bufferView" : 6,
            "componentType" : 5126,
            "count" : 4,
            "type" : "MAT4"
        },
        {
            "bufferView" : 7,
            "componentType" : 5126,
            "count" : 160,
            "max" : [
                0.6000000238418579,
                0.6000000238418579,
                7.154928649555359e-09
            ],
            "min" : [
                -0.6000000238418579,
                -0.6000000238418579,
                -1.100000023841858
            ],
            "type" : "VEC3"
        },
        {
            "bufferView" : 8,
            "componentType" : 5126,
            "count" : 160,
            "type" : "VEC3"
        },
        {
            "bufferView" : 9,
            "componentType" : 5126,
            "count" : 160,
            "type" : "VEC2"
        },
        {
            "bufferView" : 10,
            "componentType" : 5123,
            "count" : 160,
            "type" : "VEC4"
        },
        {
            "bufferView" : 11,
            "componentType" : 5126,
            "count" : 160,
            "type" : "VEC4"
        },
        {
            "bufferView" : 12,
            "componentType" : 5123,
            "count" : 282,
            "type" : "SCALAR"
        }
    ],
    "bufferViews" : [
        {
            "buffer" : 0,
            "byteLength" : 1920,
            "byteOffset" : 0
        },
        {
            "buffer" : 0,
            "byteLength" : 1920,
            "byteOffset" : 1920
        },
        {
            "buffer" : 0,
            "byteLength" : 1280,
            "byteOffset" : 3840
        },
        {
            "buffer" : 0,
            "byteLength" : 1280,
            "byteOffset" : 5120
        },
        {
            "buffer" : 0,
            "byteLength" : 2560,
            "byteOffset" : 6400
        },
        {
            "buffer" : 0,
            "byteLength" : 564,
            "byteOffset" : 8960
        },
        {
            "buffer" : 0,
            "byteLength" : 256,
            "byteOffset" : 9524
        },
        {
            "buffer" : 0,
            "byteLength" : 1920,
            "byteOffset" : 9780
        },
        {
            "buffer" : 0,
            "byteLength" : 1920,
            "byteOffset" : 11700
        },
        {
            "buffer" : 0,
            "byteLength" : 1280,
            "byteOffset" : 13620
        },
        {
            "buffer" : 0,
            "byteLength" : 1280,
            "byteOffset" : 14900
        },
        {
            "buffer" : 0,
            "byteLength" : 2560,
            "byteOffset" : 16180
        },
        {
            "buffer" : 0,
            "byteLength" : 564,
            "byteOffset" : 18740
        }
    ],
    "buffers" : [
        {
            "byteLength" : 19304,
            "uri" : "data:application/octet-stream;base64,"
        }
    ]
}
